<?xml version="1.0" standalone="no"?>
<svg viewBox="0 0 200 200" xmlns="http://www.w3.org/2000/svg">
  <path fill="#2319C5" d="M18.2,-41.1C23.4,-28.4,27.5,-23.3,37.4,-17.8C47.3,-12.2,62.9,-6.1,67.4,2.6C71.8,11.3,65.2,22.5,54.1,26.1C43.1,29.6,27.7,25.5,18,35.9C8.2,46.3,4.1,71.4,-1.8,74.6C-7.8,77.7,-15.5,59.1,-25.9,49C-36.3,38.9,-49.2,37.4,-57.8,30.7C-66.3,23.9,-70.5,12,-69.3,0.7C-68.1,-10.6,-61.6,-21.2,-54.1,-29.8C-46.6,-38.3,-38.1,-44.8,-28.9,-55.2C-19.8,-65.6,-9.9,-79.9,-1.7,-76.9C6.5,-74,12.9,-53.7,18.2,-41.1Z" transform="translate(100 100)" />
</svg>
